<?xml version="1.0" encoding="UTF-8"?>
<svg id="Layer_1" data-name="Layer 1" xmlns="http://www.w3.org/2000/svg" viewBox="0 0 548.93 312.21">
  <defs>
    <style>
      .cls-1 {
        fill: #f36d21;
        stroke-width: 0px;
      }
    </style>
  </defs>
  <polygon class="cls-1" points="0 156.3 542.07 156.3 542.07 161.71 0 161.71 0 156.3 0 156.3"/>
  <polygon class="cls-1" points="0 242.61 542.07 242.61 542.07 248.01 0 248.01 0 242.61 0 242.61"/>
  <path class="cls-1" d="M19.03,120.52C7.93,110.62,2.68,93.37,2.68,80.47c0-15.45,4.95-29.4,15.45-40.65,8.55-9.15,21-16.2,39.6-16.2,13.65,0,24.9,3.45,30.15,6.3,2.1,1.05,2.85.9,3.15-.15l1.2-3.75c.3-.9.6-.9,2.85-.9s2.55.3,2.55,2.4c0,2.85,2.7,28.35,3.45,32.85.15,1.05,0,1.8-.75,1.95l-3.3.9c-.75.3-1.35-.3-1.8-1.65-1.65-6-5.7-13.65-12-20.1-6.45-6.3-14.4-11.25-25.8-11.25-21.9,0-31.2,19.95-31.05,42.15,0,9.45,2.7,27.9,13.35,39.15,9.75,10.05,18.3,11.25,23.4,11.25,17.1,0,29.85-7.8,35.4-16.05.75-1.2,1.5-1.8,2.25-1.2l2.55,2.25c.45.3.6.9,0,1.8-8.7,12.6-23.25,24.75-44.4,24.75-19.95,0-30.45-5.4-39.9-13.8h0Z"/>
  <path class="cls-1" d="M128.83,120.52c-11.1-9.9-16.35-27.15-16.35-40.05,0-15.45,4.95-29.4,15.45-40.65,8.55-9.15,21-16.2,39.6-16.2,13.65,0,24.9,3.45,30.15,6.3,2.1,1.05,2.85.9,3.15-.15l1.2-3.75c.3-.9.6-.9,2.85-.9s2.55.3,2.55,2.4c0,2.85,2.7,28.35,3.45,32.85.15,1.05,0,1.8-.75,1.95l-3.3.9c-.75.3-1.35-.3-1.8-1.65-1.65-6-5.7-13.65-12-20.1-6.45-6.3-14.4-11.25-25.8-11.25-21.9,0-31.2,19.95-31.05,42.15,0,9.45,2.7,27.9,13.35,39.15,9.75,10.05,18.3,11.25,23.4,11.25,17.1,0,29.85-7.8,35.4-16.05.75-1.2,1.5-1.8,2.25-1.2l2.55,2.25c.45.3.6.9,0,1.8-8.7,12.6-23.25,24.75-44.4,24.75-19.95,0-30.45-5.4-39.9-13.8h0Z"/>
  <path class="cls-1" d="M233.39,98.92c.6,0,1.05.16,1.05,1.2.3,4.65,2.4,11.1,6,16.95,4.35,6.9,11.7,10.2,18.9,10.2s18.75-4.8,18.75-16.65c0-12.46-2.4-16.05-21.9-23.4-4.5-1.65-14.1-6.45-21.75-13.05-5.25-4.65-7.5-12.6-7.5-21.3,0-9.15,2.25-15.3,11.25-22.05,6.75-5.1,12.45-7.2,21.6-7.2,10.95,0,16.8,1.8,19.95,3,1.5.6,2.55.3,3.45-.75l1.95-1.95c.6-.6,1.35-.9,2.25-.9,1.05,0,1.35,1.65,1.5,2.55l2.4,25.65c0,.6-.3.75-.75.9l-3.31,1.05c-.75.3-1.5,0-1.95-1.05-1.65-4.35-4.2-10.2-9.3-15.6-3.75-4.2-8.25-6.3-15-6.3-11.25,0-15.9,9.75-15.9,13.65,0,5.55.15,10.05,3.9,13.8,3.9,4.05,12.45,7.65,19.8,9.75,7.2,2.1,13.05,5.85,19.2,11.39,5.86,5.25,8.26,11.85,8.26,22.35,0,18.3-13.06,33.15-32.86,33.15-13.5,0-20.55-2.25-26.85-6.45-1.8-1.2-2.7-1.65-3.45-1.65-.9,0-1.5,1.05-2.4,2.55-.9,1.65-1.65,1.8-2.7,1.8-1.65,0-2.25-.75-2.1-2.4l2.4-28.5c.15-1.05.6-1.05,1.2-1.05l3.9.3h0Z"/>
  <path class="cls-1" d="M322.09,63.22c0-3.9-.45-25.2-.75-27.45-.45-3.6-2.4-4.2-4.95-4.2h-7.51c-.75,0-1.2-.15-1.2-1.05v-4.35c0-.6.45-.75,1.05-.75,1.95,0,8.57.45,23.58.45,3.9,0,18.9-.45,22.35-.45,20.4,0,36.6,1.8,50.85,13.65,9.9,8.25,16.8,20.7,16.8,38.1s-4.95,28.65-14.85,39.45c-14.55,15.75-40.2,15.9-49.65,15.9-2.4,0-20.1-.45-28.35-.45-13.07,0-19.08.45-21.18.45-.75,0-1.05-.3-1.05-1.35v-3.9c0-.59.45-.9,1.2-.9h7.81c2.85,0,4.51-1.2,4.81-3.6.45-3.15,1.05-36.9,1.05-48.3v-11.25h0ZM344.6,77.77c0,1.95.15,27.46.3,36.75,0,3,.6,5.4,2.55,8.25,1.8,2.7,6.9,3.6,12,3.6,8.7,0,20.25-4.35,28.05-14.7,6-7.95,10.65-20.25,10.65-34.21,0-12.3-5.1-24.9-12.15-32.7-7.95-8.85-21.15-13.65-29.85-13.65-4.2,0-6.45.15-8.4,1.2-2.25,1.05-2.85,3.45-3,6.45-.15,6.3-.15,25.95-.15,28.35v10.65h0Z"/>
  <path class="cls-1" d="M39.95,214c.17.17.22.33.11.56-3.35,4.81-8.72,9.39-16.66,9.39-7.16,0-11.18-2.13-14.65-5.25-4.14-3.69-6.04-10.17-6.04-15.09,0-5.48,1.79-10.73,5.7-14.98,3.02-3.24,7.83-5.93,14.53-5.93,5.14,0,9.28,1.57,11.29,2.68.78.45,1.01.45,1.12,0l.45-1.46c.11-.33.22-.33.89-.33s.78.11.78.89c0,1.01,1.12,9.95,1.34,11.63.06.33,0,.5-.22.56l-1.06.34c-.28.11-.45-.11-.62-.56-.67-2.01-2.01-4.81-4.36-7.27-2.46-2.35-5.37-4.14-9.73-4.14-8.94,0-12.63,8.05-12.63,16.1,0,3.46,1.01,10.06,5.14,14.53,3.69,3.92,6.93,4.36,9.61,4.36,6.15,0,11.01-3.07,13.36-6.48.28-.39.5-.56.67-.39l.95.84h0Z"/>
  <path class="cls-1" d="M84.67,211.59c.11.11.11.22.11.56-.22.34-2.46,9.62-2.79,11.13-1.45-.06-17.55-.17-23.25-.17-5.03,0-7.04.17-7.71.17-.45,0-.45-.11-.45-.5v-1.29c0-.33,0-.45.34-.45h2.24c2.01,0,2.35-.78,2.35-1.51,0-1.01.22-14.98.22-18.34v-3.13c0-3.58-.11-9.5-.22-10.45-.11-1.46-.34-2.01-1.79-2.01h-2.35c-.34,0-.45-.34-.45-.5v-1.29c0-.33.11-.45.45-.45.56,0,2.57.17,7.71.17,6.04,0,8.39-.17,8.83-.17s.56.23.56.5v1.28c0,.22-.11.45-.56.45h-3.02c-1.68,0-1.9.56-1.9,2.06,0,.79-.22,9.17-.22,13.08v4.81c0,1,0,13.08.22,15.48h3.13c3.13,0,7.15,0,9.39-.28,3.13-.45,6.71-7.16,7.49-9.28.22-.22.33-.33.67-.22l1.01.33h0Z"/>
  <path class="cls-1" d="M103.79,207.73c-.45,1.29-3.19,9.28-3.47,10.79-.11.45-.11.89-.11,1.18,0,.72.89,1.34,2.01,1.34h2.35c.45,0,.56.11.56.28v1.4c0,.33-.11.56-.45.56-.78,0-3.13-.17-7.04-.17-4.14,0-5.37.17-6.15.17-.34,0-.34-.34-.34-.73v-1.06c0-.33.11-.45.34-.45h1.68c1.57,0,2.57-.78,3.58-2.52.56-1,4.58-11.07,6.26-15.76.39-1.12,4.92-13.19,5.48-14.65.11-.56.45-1.57.11-1.9-.17-.17-.34-.5-.34-.67,0-.22.11-.45.56-.56,1.79-.45,4.86-2.12,5.53-2.79.34-.34.56-.56.84-.56.33,0,.56.67.67,1.01,1.01,3.47,5.37,15.99,6.37,19.56,1.34,4.36,4.92,14.76,5.7,16.27,1,1.9,2.46,2.57,3.58,2.57h1.79c.33,0,.45.11.45.39v1.17c0,.33-.11.67-.56.67-1,0-2.12-.17-8.27-.17-4.69,0-6.59.17-7.83.17-.45,0-.56-.34-.56-.67v-1.12c0-.33.11-.45.45-.45h1.45c1.57,0,2.01-.56,1.68-2.07-.45-2.01-2.68-9.17-3.35-11.24h-12.97ZM116.2,205.5c-.56-1.62-4.36-14.37-4.7-15.48-.22-.67-.34-1.01-.56-1.01-.34,0-.56.22-.73.73-.22.73-5.25,14.48-5.65,15.76h11.63Z"/>
  <path class="cls-1" d="M154.32,208.46c0,3.36.11,9.62.22,10.45.17,1.12.56,2.12,1.45,2.12h2.79c.34,0,.45.17.45.39v1.34c0,.39-.17.5-.62.5-.73,0-1.84-.17-7.66-.17-5.48,0-6.82.17-7.38.17-.33,0-.45-.17-.45-.5v-1.29c0-.28.11-.45.34-.45h1.9c1.23,0,2.12-.33,2.12-1.84.11-5.59.11-10.85.11-16.1v-14.7c0-1.9-.78-2.79-1.79-2.79h-2.18c-.28,0-.39-.11-.39-.34v-1.51c0-.28.11-.39.39-.39.39,0,2.18.17,7.66.17,3.13,0,8.27-.17,9.95-.17,4.47,0,7.94,1.51,10.17,3.52,2.01,1.79,3.02,4.14,3.02,6.26,0,7.04-4.25,9.95-10.4,10.96v.22c1.57.56,2.57,1.56,3.36,2.57.67.89,4.14,6.15,4.58,6.82.34.56,3.91,5.59,4.75,6.37,1.06.95,2.63,1.06,3.97,1.06.34,0,.45.17.45.39v1.17c0,.39-.11.56-.45.56-.45,0-1.9-.17-5.48-.17-1.56,0-3.69.11-4.92.17-.67-.5-1.73-2.01-2.46-3.19-1.01-1.57-3.19-5.59-3.69-6.48-.56-1.01-2.12-3.58-3.02-4.81-1.4-1.96-2.68-3.47-5.03-3.47-.22,0-1.17.06-1.79.11v3.02h0ZM154.43,203.43c.78.11,1.45.23,2.12.23,8.72,0,10.51-7.05,10.51-9.62s-1.06-4.98-2.46-6.26c-2.01-1.79-4.58-2.4-7.38-2.4-.89,0-1.57.05-2.01.33-.45.28-.67.95-.67,1.62l-.11,16.1h0Z"/>
  <path class="cls-1" d="M200.44,208.01c0,2.8.11,10.96.17,11.79.06.79.62,1.23,1.29,1.23h2.12c.22,0,.45.11.45.28v1.51c0,.22-.11.45-.34.45-.67,0-2.35-.17-7.16-.17s-6.6.17-7.16.17c-.22,0-.34-.11-.34-.39v-1.51c0-.22.11-.34.34-.34h2.01c1,0,1.45-.45,1.51-1.06.06-.45.17-10.62.17-17.55v-3.24c0-1-.11-11.74-.11-12.24,0-.67-.34-1.34-1.68-1.34h-1.68c-.34,0-.45-.11-.45-.39v-1.51c0-.22.11-.33.45-.33.67,0,2.35.17,7.16.17,4.36,0,6.15-.17,6.93-.17.34,0,.45.11.45.39v1.4c0,.34-.11.45-.45.45h-1.79c-1.12,0-1.68.33-1.68,1.62,0,.89-.22,9.61-.22,12.3v2.46h1.01c.67,0,1.23-.22,1.9-.78,1.06-.89,10.79-13.02,11.4-13.86.78-1.12.11-1.79-.89-1.79h-.84c-.22,0-.28-.11-.28-.39v-1.34c0-.33.11-.45.33-.45.67,0,2.91.17,6.6.17,2.23,0,4.14-.17,4.81-.17.33,0,.45.11.45.39v1.4c0,.34-.22.45-.45.45h-1.12c-.78,0-2.01.22-3.13.95-2.63,1.73-10.51,10.85-12.63,13.64,2.24,2.8,13.64,17.55,15.32,19.51,1,1.23,2.46,1.34,3.35,1.34h1.23c.34,0,.45.22.45.39v1.4c0,.33-.11.45-.45.45-.56,0-2.57-.17-7.71-.17-4.69,0-6.82.17-7.6.17-.22,0-.34-.11-.34-.45v-1.4c0-.22.11-.33.34-.33h.78c1.01,0,1.12-1.01.89-1.45-.56-1.12-9.62-14.09-10.51-14.98-.56-.56-1.23-.78-1.9-.78h-1.01v4.14h0Z"/>
  <path class="cls-1" d="M292,214c.17.17.22.33.11.56-3.35,4.81-8.72,9.39-16.66,9.39-7.15,0-11.18-2.13-14.65-5.25-4.14-3.69-6.04-10.17-6.04-15.09,0-5.48,1.79-10.73,5.7-14.98,3.02-3.24,7.83-5.93,14.53-5.93,5.14,0,9.28,1.57,11.29,2.68.78.45,1,.45,1.12,0l.45-1.46c.11-.33.22-.33.89-.33s.78.11.78.89c0,1.01,1.12,9.95,1.34,11.63.05.33,0,.5-.22.56l-1.06.34c-.28.11-.45-.11-.61-.56-.67-2.01-2.01-4.81-4.36-7.27-2.46-2.35-5.37-4.14-9.73-4.14-8.94,0-12.63,8.05-12.63,16.1,0,3.46,1.01,10.06,5.14,14.53,3.69,3.92,6.93,4.36,9.61,4.36,6.15,0,11.01-3.07,13.36-6.48.28-.39.5-.56.67-.39l.95.84h0Z"/>
  <path class="cls-1" d="M336.39,187.16c4.19,3.41,7.6,8.95,7.6,16.55,0,4.14-1.12,8.5-4.14,12.3-3.58,4.47-8.39,7.94-16.77,7.94-3.35,0-8.16-1.01-12.63-3.69-3.97-2.41-8.16-8.5-8.16-16.55,0-3.35.95-8.67,5.14-13.86,4.92-6.04,10.96-7.16,15.76-7.16,4.14,0,8.61.79,13.19,4.47h0ZM314.92,188.28c-3.41,3.3-5.03,9.06-5.03,13.53,0,14.53,8.94,19.68,13.64,19.68,11.29,0,13.08-12.52,13.08-17.22,0-12.19-8.27-19.12-13.64-19.12-1.01,0-4.25-.56-8.05,3.13h0Z"/>
  <path class="cls-1" d="M359.7,188.39c0-1.9-.45-2.79-1.9-2.79h-2.57c-.33,0-.45-.11-.45-.5v-1.29c0-.33.11-.45.56-.45.56,0,3.24.17,8.61.17,4.7,0,7.38-.17,8.05-.17.34,0,.45.11.45.39v1.4c0,.34-.11.45-.45.45h-2.35c-1.68,0-2.68,1-2.74,2.18-.06.67-.17,4.03-.17,7.27v6.93c0,2.79.06,6.76.17,8.55.17,2.57.62,5.14,1.96,6.93,1.9,2.57,4.92,3.47,7.6,3.47s5.7-1.01,7.49-2.68c2.12-2.12,3.24-5.37,3.24-9.45v-10.06c0-4.47-.45-9.39-.62-10.68-.17-1.45-1.06-2.46-2.29-2.46h-2.01c-.34,0-.45-.17-.45-.39v-1.4c0-.33.11-.45.45-.45.56,0,3.13.17,6.82.17,3.47,0,5.25-.17,5.7-.17.5,0,.56.17.56.45v1.29c0,.33-.05.5-.33.5h-2.01c-2.01,0-2.24,1.56-2.35,2.18-.11.67-.11,8.5-.11,9.22,0,.78-.11,10.51-.34,12.75-.33,4.58-1.67,8.05-4.69,10.73-2.35,2.12-5.92,3.47-10.17,3.47-2.68,0-5.92-.45-8.05-1.34-3.24-1.34-5.48-3.91-6.6-7.49-.78-2.46-1-6.15-1-13.47v-13.25h0Z"/>
  <path class="cls-1" d="M412.02,197.84c0,9.5.45,17.33.56,19.06.11,2.8.78,4.14,2.79,4.14h1.45c.45,0,.45.22.45.5v1.29c0,.33,0,.45-.45.45-.56,0-3.91-.17-6.04-.17-1.45,0-5.26.17-5.81.17-.22,0-.33-.11-.33-.5v-1.4c0-.11.11-.34.33-.34h1.9c1.45,0,2.24-1.23,2.52-4.64.05-1.01.39-8.83.39-17.78v-7.1c0-3.35-1.9-5.92-4.36-5.92h-1.79c-.22-.06-.34-.17-.34-.39v-1.51c0-.22.11-.33.34-.33.28,0,.73.05,1.73.11,1.01.05,2.52.05,4.98.05.95,0,1.79-.05,2.46-.11.73,0,1.23-.05,1.56-.05.67,0,1.01.17,1.34.5.56.56,11.51,14.31,12.63,15.87.78.9,9.5,11.74,10.4,12.86h.22v-5.82c0-4.92,0-7.71-.11-10.51-.11-2.12-.34-7.6-.61-8.55-.39-1.34-1.62-2.12-2.96-2.12h-1.79c-.33,0-.33-.22-.33-.5v-1.29c0-.33,0-.45.45-.45.67,0,2.46.17,6.26.17,3.36,0,4.7-.17,5.37-.17.45,0,.56.23.56.39v1.29c0,.34-.11.56-.33.56h-1.56c-1.12,0-1.68.89-1.84,2.96-.28,3.8-.84,13.19-.84,18.9v14.76c0,.78,0,1.57-.67,1.57-.78,0-1.46-.45-1.9-.9-.45-.56-3.46-4.02-6.93-8.16-3.91-4.81-8.27-10.06-8.95-10.95-.78-.78-9.73-11.96-10.4-12.75h-.33v6.82h0Z"/>
  <path class="cls-1" d="M470.6,185.88h-1.56c-1.79,0-5.81,0-8.16.78-1.79.79-3.91,4.47-4.97,6.37-.17.28-.33.5-.62.39l-1.12-.39c-.22-.11-.28-.28-.22-.56.56-2.12,2.46-9.5,2.68-10.28.11-.79.45-1.01.67-1.01.34,0,.56.22.9.56,1.12,1.12,2.23,1.4,3.8,1.45,3.02.11,5.37.34,10.84.34h3.02c6.15,0,8.5-.23,11.07-.34,1.06-.06,3.19-.84,4.02-1.45.45-.34.67-.56,1.01-.56s.45.22.56.89c.11,1,1.23,7.94,1.68,10.62.06.34-.05.45-.22.5l-1.12.39c-.22.05-.34-.11-.5-.45-.78-1.57-2.85-5.14-4.42-6.26-1.57-.89-6.6-1-8.61-1h-1.57v29.79c0,4.25.56,5.37,1.9,5.37h3.24c.22,0,.34.22.34.5v1.17c0,.33-.11.56-.56.56-.56,0-2.35-.17-8.38-.17-5.7,0-8.05.17-8.83.17-.34,0-.45-.11-.45-.5v-1.29c0-.33.17-.45.39-.45h3.19c1.12,0,1.79-.67,1.84-1.51.17-1.45.17-18.56.17-19.68v-13.98h0Z"/>
  <path class="cls-1" d="M526,212.71c0,2.12.11,5.81.17,6.43.17,1.79,1.06,1.9,2.18,1.9h1.85c.28,0,.39.17.39.39v1.29c0,.39-.11.56-.39.56-.62,0-2.85-.17-7.88-.17-5.48,0-7.27.17-7.77.17-.28,0-.39-.23-.39-.5v-1.29c0-.22.11-.45.39-.45h2.29c1.46,0,1.9-.56,1.96-1.4.06-.78.17-5.14.17-10.4v-2.68c-.9-1.68-9.95-17.78-11.51-19.73-.67-.78-1.9-1.23-2.8-1.23h-1.01c-.33,0-.45-.11-.45-.39v-1.51c0-.22.11-.33.45-.33.45,0,3.13.17,7.38.17,5.7,0,7.71-.17,8.27-.17.34,0,.45.11.45.39v1.29c0,.34-.11.56-.45.56h-1.45c-1.23,0-1.68.45-1.57,1.62.11,1,6.82,13.42,8.33,16.55,1.9-3.13,9.11-14.76,9.22-16.16.11-1.01-.22-2.01-1.9-2.01h-1.45c-.34,0-.45-.17-.45-.45v-1.4c0-.28.11-.39.33-.39.56,0,2.91.17,6.82.17,3.58,0,4.81-.17,5.37-.17.33,0,.45.11.45.39v1.29c0,.34-.11.56-.45.56h-1.23c-.78,0-2.12.33-3.02,1.28-.89,1.01-10.17,15.32-12.3,19.01v6.82h0Z"/>
  <path class="cls-1" d="M5.4,298.9c.22,0,.34.11.34.45.11,1.79.56,3.91,2.12,6.37,1.68,2.68,4.58,4.03,7.38,4.03,3.02,0,7.27-1.9,7.27-6.54,0-5.14-2.35-6.82-8.27-9.05-1.79-.67-5.48-2.24-8.16-4.7-1.9-1.79-2.79-4.58-2.79-7.99,0-3.13,1.23-5.7,3.91-7.83,2.24-1.9,4.69-2.68,7.94-2.68,3.69,0,5.92.89,7.04,1.34.56.22.89.11,1.17-.17l.73-.73c.22-.22.45-.34.78-.34s.45.34.45.9c0,.89.89,8.72.89,9.28,0,.22-.11.34-.34.39l-.89.28c-.22.06-.45,0-.56-.33-.56-1.57-1.45-3.8-3.47-5.92-1.45-1.57-3.24-2.35-5.81-2.35-4.47,0-6.26,3.58-6.26,5.65,0,1.9.22,3.58,1.56,5.03,1.45,1.45,4.58,2.79,6.82,3.46,3.24,1.01,5.93,2.13,8.05,4.36,1.79,1.9,2.79,4.25,2.79,7.99,0,6.82-4.47,12.41-11.85,12.41-4.58,0-7.27-1.01-9.5-2.68-.67-.45-1-.67-1.34-.67s-.56.45-.89,1.01c-.34.56-.56.67-1.01.67s-.67-.34-.67-.9c.11-.67.89-9.73,1.01-10.4.06-.33.11-.45.34-.45l1.23.11h0Z"/>
  <path class="cls-1" d="M70.8,302.26c.17.17.22.33.11.56-3.35,4.81-8.72,9.39-16.66,9.39-7.16,0-11.18-2.13-14.65-5.25-4.14-3.69-6.04-10.18-6.04-15.09,0-5.48,1.79-10.73,5.7-14.98,3.02-3.24,7.83-5.93,14.53-5.93,5.14,0,9.28,1.57,11.29,2.68.78.45,1.01.45,1.12,0l.45-1.45c.11-.34.22-.34.89-.34s.78.11.78.9c0,1.01,1.12,9.95,1.34,11.63.06.33,0,.5-.22.56l-1.06.34c-.28.11-.45-.11-.61-.56-.67-2.01-2.01-4.8-4.36-7.26-2.46-2.35-5.37-4.14-9.73-4.14-8.95,0-12.63,8.05-12.63,16.1,0,3.47,1.01,10.06,5.14,14.53,3.69,3.91,6.93,4.36,9.61,4.36,6.15,0,11.01-3.08,13.36-6.49.28-.39.5-.56.67-.39l.95.84h0Z"/>
  <path class="cls-1" d="M87.24,291.92c-.61,0-.78.22-.78.73v2.4c0,2.01.11,8.5.23,12.36.06,1.34.67,1.9,1.9,1.9h2.01c.45,0,.56.11.56.39v1.29c0,.33-.11.56-.56.56-1.01,0-2.91-.17-7.49-.17-5.48,0-7.15.17-8.27.17-.45,0-.56-.22-.56-.5v-1.29c0-.34.11-.45.56-.45h2.91c1.34,0,1.57-1.34,1.57-2.63,0-2.68.11-9.05.11-12.63v-7.15c0-1.68-.11-8.61-.11-9.45,0-2.8-.33-3.58-2.12-3.58h-2.46c-.45,0-.56-.22-.56-.51v-1.17c0-.22.11-.56.56-.56,1.01,0,2.79.16,8.27.16,5.03,0,7.04-.16,8.05-.16.45,0,.56.22.56.5v1.17c0,.34-.11.56-.56.56h-2.01c-2.01,0-2.24.9-2.29,3.07-.06.79-.28,8.16-.28,9.62v2.24c0,.56.17.78.67.78h18.45c.89,0,1.12-.17,1.12-.78v-1.68c0-2.01-.22-9.84-.28-10.45-.05-1.79-.28-2.79-1.51-2.79h-2.57c-.39,0-.45-.17-.45-.51v-1.29c0-.28.06-.45.45-.45,1.01,0,3.47.16,7.94.16s6.49-.16,7.38-.16c.56,0,.67.22.67.5v1.17c0,.34-.11.56-.67.56h-2.01c-1.68,0-1.79.9-1.79,2.85,0,.78-.11,8.38-.11,10.17v6.04c0,2.46.11,10.4.11,13.58,0,2.01.56,2.8,2.24,2.8h2.24c.34,0,.45.17.45.39v1.29c0,.33-.11.56-.56.56-.89,0-2.79-.17-7.6-.17-5.25,0-7.04.17-8.61.17-.34,0-.45-.28-.45-.5v-1.29c0-.28.06-.45.45-.45h3.02c1.34,0,1.4-1.01,1.45-2.52.11-2.68.22-11.63.22-12.63v-1.57c0-.5-.45-.67-1.23-.67h-18.22Z"/>
  <path class="cls-1" d="M157.84,275.43c4.19,3.41,7.6,8.95,7.6,16.55,0,4.14-1.12,8.5-4.14,12.3-3.58,4.47-8.39,7.94-16.77,7.94-3.35,0-8.16-1.01-12.63-3.69-3.97-2.4-8.16-8.5-8.16-16.54,0-3.36.95-8.66,5.14-13.86,4.92-6.04,10.96-7.16,15.76-7.16,4.14,0,8.61.79,13.19,4.47h0ZM136.37,276.54c-3.41,3.3-5.03,9.06-5.03,13.53,0,14.53,8.94,19.68,13.64,19.68,11.29,0,13.08-12.52,13.08-17.22,0-12.19-8.27-19.12-13.64-19.12-1.01,0-4.25-.56-8.05,3.13h0Z"/>
  <path class="cls-1" d="M205.91,275.43c4.19,3.41,7.6,8.95,7.6,16.55,0,4.14-1.12,8.5-4.14,12.3-3.58,4.47-8.39,7.94-16.77,7.94-3.36,0-8.16-1.01-12.63-3.69-3.97-2.4-8.16-8.5-8.16-16.54,0-3.36.95-8.66,5.14-13.86,4.92-6.04,10.96-7.16,15.76-7.16,4.14,0,8.61.79,13.19,4.47h0ZM184.45,276.54c-3.41,3.3-5.03,9.06-5.03,13.53,0,14.53,8.94,19.68,13.64,19.68,11.29,0,13.08-12.52,13.08-17.22,0-12.19-8.27-19.12-13.64-19.12-1.01,0-4.25-.56-8.05,3.13h0Z"/>
  <path class="cls-1" d="M252.65,299.86c.11.11.11.22.11.56-.22.33-2.46,9.62-2.79,11.12-1.45-.05-17.55-.17-23.26-.17-5.03,0-7.04.17-7.71.17-.45,0-.45-.11-.45-.5v-1.29c0-.34,0-.45.34-.45h2.24c2.01,0,2.35-.79,2.35-1.51,0-1,.22-14.98.22-18.34v-3.13c0-3.58-.11-9.5-.22-10.45-.11-1.46-.34-2.01-1.79-2.01h-2.35c-.34,0-.45-.34-.45-.51v-1.29c0-.33.11-.45.45-.45.56,0,2.57.16,7.72.16,6.04,0,8.38-.16,8.83-.16s.56.22.56.5v1.28c0,.23-.11.45-.56.45h-3.02c-1.68,0-1.9.56-1.9,2.07,0,.78-.22,9.17-.22,13.08v4.81c0,1.01,0,13.08.22,15.49h3.13c3.13,0,7.15,0,9.39-.28,3.13-.45,6.71-7.16,7.49-9.28.22-.22.33-.34.67-.22l1.01.34h0Z"/>
  <path class="cls-1" d="M272.99,285.66c0-1.45-.22-9.39-.34-10.23-.11-1.34-.89-1.56-2.01-1.56h-3.02c-.22,0-.45-.11-.45-.39v-1.51c0-.22.22-.34.5-.34,1.62,0,4.53.16,8.44.16,2.8,0,5.59-.16,8.38-.16,7.49,0,13.53.73,18.67,5.09,3.69,3.02,6.26,7.71,6.26,14.2s-1.79,10.62-5.48,14.65c-5.48,5.93-14.2,5.98-18,5.98-2.12,0-7.83-.17-10.62-.17-4.92,0-7.16.17-7.94.17-.22,0-.34-.11-.34-.5v-1.4c0-.22.11-.33.45-.33h3.24c1.12,0,1.68-.45,1.85-1.4.17-1.12.39-13.75.39-18v-4.25h0ZM280.04,291.14c0,.67.11,10.17.11,13.64,0,1.12.22,2.01,1.01,3.13.67,1.06,2.79,1.51,4.92,1.51,4.36,0,8.83-1.96,11.63-5.65,2.35-3.02,4.02-7.6,4.02-12.75,0-4.47-1.9-9.28-4.47-12.18-3.02-3.24-7.94-5.26-12.52-5.26-1.23,0-2.68,0-3.58.56-.78.45-1.01,1.34-1.01,2.46-.11,2.35-.11,9.62-.11,10.51v4.03h0Z"/>
  <path class="cls-1" d="M326.77,293.26c0,.56.11,13.42.11,14.03,0,1.79.9,2.01,2.24,2.01h2.35c.22,0,.45.11.45.39v1.4c0,.33-.22.45-.56.45-.67,0-2.9-.17-8.16-.17-5.59,0-8.05.17-8.61.17-.34,0-.45-.11-.45-.39v-1.51c0-.22.11-.33.45-.33h2.24c1.12,0,2.35-.11,2.57-1.62.11-.78.22-12.86.22-15.88v-3.92c0-1.34-.11-11.4-.17-12.12-.17-1.34-.72-1.9-2.29-1.9h-2.91c-.34,0-.45-.11-.45-.39v-1.45c0-.28.11-.39.34-.39.67,0,3.58.16,9.05.16s7.16-.16,7.94-.16c.33,0,.45.22.45.5v1.28c0,.34-.23.45-.45.45h-2.13c-1.23,0-2.12.45-2.12,1.51,0,.56-.11,12.86-.11,13.53v4.36h0Z"/>
  <path class="cls-1" d="M339.63,298.9c.22,0,.34.11.34.45.11,1.79.56,3.91,2.12,6.37,1.68,2.68,4.59,4.03,7.38,4.03,3.02,0,7.27-1.9,7.27-6.54,0-5.14-2.35-6.82-8.27-9.05-1.79-.67-5.48-2.24-8.16-4.7-1.9-1.79-2.8-4.58-2.8-7.99,0-3.13,1.23-5.7,3.92-7.83,2.24-1.9,4.7-2.68,7.94-2.68,3.69,0,5.92.89,7.04,1.34.56.22.89.11,1.18-.17l.73-.73c.22-.22.45-.34.78-.34s.45.34.45.9c0,.89.89,8.72.89,9.28,0,.22-.11.34-.33.39l-.9.28c-.22.06-.45,0-.56-.33-.56-1.57-1.46-3.8-3.46-5.92-1.46-1.57-3.24-2.35-5.82-2.35-4.47,0-6.26,3.58-6.26,5.65,0,1.9.22,3.58,1.56,5.03,1.46,1.45,4.58,2.79,6.82,3.46,3.24,1.01,5.93,2.13,8.05,4.36,1.79,1.9,2.79,4.25,2.79,7.99,0,6.82-4.47,12.41-11.85,12.41-4.58,0-7.27-1.01-9.5-2.68-.67-.45-1.01-.67-1.34-.67s-.56.45-.89,1.01c-.34.56-.56.67-1.01.67s-.67-.34-.67-.9c.11-.67.89-9.73,1.01-10.4.06-.33.11-.45.33-.45l1.23.11h0Z"/>
  <path class="cls-1" d="M381.1,274.14h-1.57c-1.79,0-5.81,0-8.16.78-1.79.78-3.91,4.47-4.97,6.37-.17.28-.33.5-.62.39l-1.12-.39c-.22-.11-.28-.28-.22-.56.56-2.12,2.46-9.5,2.68-10.29.11-.78.45-1,.67-1,.34,0,.56.22.9.56,1.12,1.12,2.24,1.4,3.8,1.45,3.02.11,5.37.33,10.85.33h3.02c6.15,0,8.5-.22,11.07-.33,1.06-.05,3.19-.84,4.02-1.45.45-.34.67-.56,1.01-.56s.45.22.56.89c.11,1.01,1.23,7.94,1.68,10.62.06.34-.06.45-.22.5l-1.12.39c-.22.06-.34-.11-.5-.45-.78-1.57-2.85-5.14-4.42-6.26-1.57-.9-6.6-1.01-8.61-1.01h-1.57v29.79c0,4.25.56,5.37,1.9,5.37h3.24c.22,0,.34.22.34.5v1.17c0,.33-.11.56-.56.56-.56,0-2.35-.17-8.38-.17-5.7,0-8.05.17-8.83.17-.34,0-.45-.11-.45-.5v-1.29c0-.34.17-.45.39-.45h3.19c1.12,0,1.79-.67,1.84-1.51.17-1.45.17-18.56.17-19.68v-13.97h0Z"/>
  <path class="cls-1" d="M419.78,296.72c0,3.35.11,9.62.22,10.45.17,1.12.56,2.13,1.46,2.13h2.79c.34,0,.45.17.45.39v1.34c0,.39-.17.5-.62.5-.73,0-1.85-.17-7.66-.17-5.48,0-6.82.17-7.38.17-.33,0-.45-.17-.45-.5v-1.29c0-.28.11-.45.33-.45h1.9c1.23,0,2.12-.34,2.12-1.85.11-5.59.11-10.85.11-16.1v-14.7c0-1.9-.78-2.79-1.79-2.79h-2.18c-.28,0-.39-.11-.39-.34v-1.51c0-.28.11-.39.39-.39.39,0,2.18.16,7.66.16,3.13,0,8.27-.16,9.95-.16,4.47,0,7.94,1.51,10.17,3.52,2.01,1.79,3.02,4.13,3.02,6.26,0,7.04-4.25,9.95-10.39,10.96v.22c1.56.56,2.57,1.57,3.35,2.57.67.89,4.14,6.15,4.58,6.82.34.56,3.91,5.59,4.75,6.37,1.06.95,2.63,1.06,3.97,1.06.33,0,.45.17.45.39v1.17c0,.39-.11.56-.45.56-.45,0-1.9-.17-5.48-.17-1.56,0-3.69.11-4.92.17-.67-.5-1.73-2.01-2.46-3.19-1.01-1.56-3.19-5.59-3.69-6.48-.56-1.01-2.12-3.58-3.02-4.81-1.39-1.96-2.68-3.47-5.03-3.47-.22,0-1.17.06-1.79.11v3.02h0ZM419.9,291.69c.78.11,1.45.22,2.13.22,8.72,0,10.51-7.05,10.51-9.62s-1.06-4.97-2.46-6.26c-2.01-1.79-4.58-2.4-7.38-2.4-.89,0-1.57.06-2.01.33-.45.28-.67.95-.67,1.62l-.11,16.1h0Z"/>
  <path class="cls-1" d="M459.64,293.26c0,.56.11,13.42.11,14.03,0,1.79.89,2.01,2.24,2.01h2.35c.22,0,.45.11.45.39v1.4c0,.33-.22.45-.56.45-.67,0-2.91-.17-8.16-.17-5.59,0-8.05.17-8.61.17-.34,0-.45-.11-.45-.39v-1.51c0-.22.11-.33.45-.33h2.23c1.12,0,2.35-.11,2.57-1.62.11-.78.22-12.86.22-15.88v-3.92c0-1.34-.11-11.4-.17-12.12-.17-1.34-.73-1.9-2.29-1.9h-2.91c-.33,0-.45-.11-.45-.39v-1.45c0-.28.11-.39.34-.39.67,0,3.58.16,9.05.16s7.16-.16,7.94-.16c.33,0,.45.22.45.5v1.28c0,.34-.22.45-.45.45h-2.12c-1.23,0-2.12.45-2.12,1.51,0,.56-.11,12.86-.11,13.53v4.36h0Z"/>
  <path class="cls-1" d="M507.32,302.26c.17.17.22.33.11.56-3.35,4.81-8.72,9.39-16.66,9.39-7.16,0-11.18-2.13-14.64-5.25-4.14-3.69-6.04-10.18-6.04-15.09,0-5.48,1.79-10.73,5.7-14.98,3.02-3.24,7.82-5.93,14.53-5.93,5.14,0,9.28,1.57,11.29,2.68.78.45,1.01.45,1.12,0l.45-1.45c.11-.34.22-.34.89-.34s.78.11.78.9c0,1.01,1.12,9.95,1.34,11.63.06.33,0,.5-.22.56l-1.06.34c-.28.11-.45-.11-.62-.56-.67-2.01-2.01-4.8-4.36-7.26-2.46-2.35-5.37-4.14-9.72-4.14-8.95,0-12.63,8.05-12.63,16.1,0,3.47,1.01,10.06,5.14,14.53,3.69,3.91,6.93,4.36,9.61,4.36,6.15,0,11.01-3.08,13.36-6.49.28-.39.5-.56.67-.39l.95.84h0Z"/>
  <path class="cls-1" d="M525.32,274.14h-1.56c-1.79,0-5.81,0-8.16.78-1.79.78-3.91,4.47-4.97,6.37-.17.28-.34.5-.62.39l-1.12-.39c-.22-.11-.28-.28-.22-.56.56-2.12,2.46-9.5,2.68-10.29.11-.78.45-1,.67-1,.34,0,.56.22.9.56,1.12,1.12,2.23,1.4,3.8,1.45,3.02.11,5.36.33,10.84.33h3.02c6.15,0,8.5-.22,11.07-.33,1.06-.05,3.19-.84,4.03-1.45.45-.34.67-.56,1-.56s.45.22.56.89c.11,1.01,1.23,7.94,1.68,10.62.06.34-.06.45-.22.5l-1.12.39c-.22.06-.33-.11-.5-.45-.78-1.57-2.85-5.14-4.42-6.26-1.57-.9-6.6-1.01-8.61-1.01h-1.57v29.79c0,4.25.56,5.37,1.9,5.37h3.24c.22,0,.33.22.33.5v1.17c0,.33-.11.56-.56.56-.56,0-2.35-.17-8.38-.17-5.7,0-8.05.17-8.83.17-.34,0-.45-.11-.45-.5v-1.29c0-.34.17-.45.39-.45h3.19c1.12,0,1.79-.67,1.84-1.51.17-1.45.17-18.56.17-19.68v-13.97h0Z"/>
  <path class="cls-1" d="M520.47,129.01l5.59-5.72-3.25-3.65-9.91,9.94-54.47-54.63s2.53-9.34,13.24-12.12c0,0,53.44,53.48,58.49,58.71,5.05,5.22,8.3,2.06,7.96-7.13-.34-9.19-1.59-96-1.59-96-.01-6.02-.72-8.75-7.69-9.76-26.87-3.88-48.63-7.1-60.98-8.6-6.25-.75-17.18,10.17-17.88,15.91,0,0-1.37,34.99-2.01,46.73-.63,11.74,1.32,15.89,4.62,19.47,3.3,3.58,54.45,54.33,59.31,59.23,4.86,4.89,8.9,3.83,8.74-3.67l-.16-8.7h0Z"/>
  <polygon class="cls-1" points="521.63 75.25 524.73 81.54 531.67 82.55 526.65 87.43 527.84 94.35 521.63 91.08 515.43 94.35 516.61 87.43 511.59 82.55 518.53 81.54 521.63 75.25 521.63 75.25"/>
</svg>